<svg width="32" height="32" viewBox="0 0 32 32" fill="none" xmlns="http://www.w3.org/2000/svg">
<path fill-rule="evenodd" clip-rule="evenodd" d="M4.65213 10.4348C4.65213 9.33022 5.54756 8.43478 6.65213 8.43478H25.3478C26.4524 8.43478 27.3478 9.33021 27.3478 10.4348V16.1046C26.9377 16.0358 26.5165 16 26.0869 16C21.9088 16 18.5217 19.3871 18.5217 23.5652C18.5217 23.9948 18.5575 24.416 18.6263 24.8261H6.65213C5.54756 24.8261 4.65213 23.9307 4.65213 22.8261V10.4348ZM23.7473 10.7543C24.2071 10.5067 24.7806 10.6788 25.0282 11.1386C25.2758 11.5985 25.1038 12.172 24.6439 12.4196L16.4483 16.8326C16.1684 16.9833 15.8315 16.9833 15.5516 16.8326L7.35597 12.4196C6.89613 12.172 6.72408 11.5985 6.97168 11.1386C7.21929 10.6788 7.79279 10.5067 8.25264 10.7543L16 14.926L23.7473 10.7543Z" fill="white"/>
<path opacity="0.3" fill-rule="evenodd" clip-rule="evenodd" d="M25.4565 26.087C27.1974 26.087 28.6086 24.6757 28.6086 22.9348C28.6086 21.1939 27.1974 19.7826 25.4565 19.7826C23.7156 19.7826 22.3043 21.1939 22.3043 22.9348C22.3043 24.6757 23.7156 26.087 25.4565 26.087Z" fill="white"/>
</svg>
