<svg width="24" height="24" viewBox="0 0 24 24" fill="none" xmlns="http://www.w3.org/2000/svg">
<g id="Stockholm-icons / Shopping / Box#2">
<g id="crown 1" clip-path="url(#clip0)">
<g id="Group">
<g id="Group_2">
<g id="Group_3">
<path id="Vector" d="M12.0001 11.9699L11.0331 13.5817L12.0001 15.1934L12.9671 13.5817L12.0001 11.9699ZM12.0001 11.9699L11.0331 13.5817L12.0001 15.1934L12.9671 13.5817L12.0001 11.9699ZM20.1571 9.46745L16.3811 12.2761L12.4578 5.41089C12.2556 5.05691 11.7445 5.05726 11.5424 5.41089L7.61908 12.2761L3.84304 9.46745C3.44547 9.17182 2.89569 9.54127 3.01732 10.0207L4.45855 15.6908H7.78184C8.0729 15.6908 8.30912 15.927 8.30912 16.2181C8.30912 16.5091 8.0729 16.7453 7.78184 16.7453H4.72641L5.1616 18.4573C5.221 18.6907 5.43156 18.8545 5.67271 18.8545H18.3275C18.5686 18.8545 18.7792 18.6907 18.8386 18.4573L19.2738 16.7453H16.2183C15.9273 16.7453 15.6911 16.5091 15.6911 16.2181C15.6911 15.927 15.9273 15.6908 16.2183 15.6908H19.5416L20.9829 10.0207C21.1048 9.54021 20.554 9.17252 20.1571 9.46745ZM14.034 13.853L12.4521 16.4894C12.2483 16.8294 11.7533 16.8315 11.548 16.4894L9.96619 13.853C9.86601 13.6861 9.86601 13.4773 9.96619 13.3103L11.548 10.6739C11.7519 10.3339 12.2469 10.3318 12.4521 10.6739L14.034 13.3103C14.1342 13.4773 14.1342 13.6861 14.034 13.853ZM11.0331 13.5817L12.0001 15.1934L12.9671 13.5817L12.0001 11.9699L11.0331 13.5817Z" fill="white"/>
</g>
</g>
<g id="Group_4">
<g id="Group_5">
<path id="Vector_2" opacity="0.3" d="M8.28697 8.98224L7.29392 10.7198L5.82104 9.62412L6.21018 7.67809C6.29947 7.23201 6.87596 7.10125 7.14909 7.46507L8.28697 8.98224Z" fill="white"/>
</g>
</g>
<g id="Group_6">
<g id="Group_7">
<path id="Vector_3" opacity="0.3" d="M18.1792 9.62412L16.7063 10.7198L15.7133 8.98224L16.8511 7.46507C17.1239 7.10125 17.7008 7.23201 17.79 7.67809L18.1792 9.62412Z" fill="white"/>
</g>
</g>
</g>
</g>
</g>
<defs>
<clipPath id="clip0">
<rect width="18" height="18" fill="white" transform="translate(3 3)"/>
</clipPath>
</defs>
</svg>
