<svg width="24" height="24" viewBox="0 0 24 24" fill="none" xmlns="http://www.w3.org/2000/svg">
<g id="Stockholm-icons / General / User">
<path id="Mask" opacity="0.3" d="M12 11C9.79086 11 8 9.20914 8 7C8 4.79086 9.79086 3 12 3C14.2091 3 16 4.79086 16 7C16 9.20914 14.2091 11 12 11Z" fill="white"/>
<path id="Mask Copy" d="M3.00065 20.1992C3.38826 15.4265 7.26191 13 11.9833 13C16.7712 13 20.7049 15.2932 20.9979 20.2C21.0096 20.3955 20.9979 21 20.2467 21C16.5411 21 11.0347 21 3.7275 21C3.47671 21 2.97954 20.4592 3.00065 20.1992Z" fill="white"/>
</g>
</svg>
