<svg width="24" height="24" viewBox="0 0 24 24" fill="none" xmlns="http://www.w3.org/2000/svg">
<g opacity="0.3">
<path d="M12 9.36328C10.5462 9.36328 9.36328 10.5462 9.36328 12C9.36328 13.4538 10.5462 14.6367 12 14.6367C13.4538 14.6367 14.6367 13.4538 14.6367 12C14.6367 10.5462 13.4538 9.36328 12 9.36328Z" fill="white"/>
</g>
<path d="M21 13.4873V10.5128L18.5599 10.0323C18.4265 9.58888 18.2493 9.16141 18.0289 8.75459L19.3905 6.71215L17.2878 4.60945L15.2454 5.97105C14.8386 5.75063 14.4111 5.57347 13.9677 5.44009L13.4873 3H10.5128L10.0323 5.44012C9.58888 5.57351 9.16141 5.75066 8.75459 5.97109L6.71215 4.60945L4.60945 6.71215L5.97105 8.75459C5.75063 9.16141 5.57347 9.58884 5.44009 10.0323L3 10.5127V13.4872L5.44012 13.9677C5.57351 14.4111 5.75066 14.8386 5.97109 15.2454L4.60945 17.2879L6.71215 19.3905L8.75459 18.0289C9.16141 18.2494 9.58884 18.4265 10.0323 18.5599L10.5127 21H13.4872L13.9677 18.5599C14.4111 18.4265 14.8386 18.2493 15.2454 18.0289L17.2879 19.3905L19.3905 17.2878L18.0289 15.2454C18.2494 14.8386 18.4265 14.4111 18.5599 13.9677L21 13.4873ZM12 15.6914C9.96477 15.6914 8.30859 14.0352 8.30859 12C8.30859 9.96477 9.96477 8.30859 12 8.30859C14.0352 8.30859 15.6914 9.96477 15.6914 12C15.6914 14.0352 14.0352 15.6914 12 15.6914Z" fill="white"/>
</svg>
