<svg width="24" height="24" viewBox="0 0 24 24" fill="none" xmlns="http://www.w3.org/2000/svg">
<g opacity="0.3">
<path d="M14.708 7.65498C15.9934 7.65498 17.0355 6.61293 17.0355 5.32749C17.0355 4.04205 15.9934 3 14.708 3C13.4225 3 12.3805 4.04205 12.3805 5.32749C12.3805 6.61293 13.4225 7.65498 14.708 7.65498Z" fill="white"/>
</g>
<g opacity="0.3">
<path d="M9.41654 5.64311C8.13108 5.64311 7.08905 6.68514 7.08905 7.97059C7.08905 8.06935 7.09591 8.16645 7.10786 8.26197H11.7252C11.7371 8.16648 11.744 8.06935 11.744 7.97059C11.744 6.68518 10.702 5.64311 9.41654 5.64311Z" fill="white"/>
</g>
<path d="M14.0017 12.1435H19.0117V10.2184C19.0117 9.74519 18.6281 9.36163 18.1549 9.36163H4.63654C4.16334 9.36163 3.77979 9.74526 3.77979 10.2184V20.1431C3.77979 20.6163 4.16334 20.9999 4.63654 20.9999H18.1549C18.6281 20.9999 19.0117 20.6163 19.0117 20.1431V18.218H14.0017C12.9696 18.218 12.1299 17.3783 12.1299 16.3462V14.0153C12.1299 12.9832 12.9695 12.1435 14.0017 12.1435Z" fill="white"/>
<g opacity="0.3">
<path d="M19.5181 13.3134H14.0016C13.614 13.3134 13.2997 13.6276 13.2997 14.0153V16.3462C13.2997 16.7339 13.614 17.0481 14.0016 17.0481H19.5181C19.9058 17.0481 20.22 16.7339 20.22 16.3462V14.0153C20.22 13.6276 19.9057 13.3134 19.5181 13.3134ZM15.1628 16.0047C14.7078 16.0047 14.3389 15.6358 14.3389 15.1808C14.3389 14.7257 14.7078 14.3569 15.1628 14.3569C15.6178 14.3569 15.9867 14.7257 15.9867 15.1808C15.9867 15.6358 15.6178 16.0047 15.1628 16.0047Z" fill="white"/>
</g>
</svg>
